<svg xmlns="http://www.w3.org/2000/svg" viewBox="0 0 512 512">
  <defs>
    <linearGradient id="bg" x1="0%" y1="0%" x2="100%" y2="100%">
      <stop offset="0%" style="stop-color:#2DD4BF"/>
      <stop offset="100%" style="stop-color:#06B6D4"/>
    </linearGradient>
    <linearGradient id="starBody" x1="0%" y1="0%" x2="100%" y2="100%">
      <stop offset="0%" style="stop-color:#FFD93D"/>
      <stop offset="100%" style="stop-color:#FF9F1C"/>
    </linearGradient>
  </defs>
  <rect width="512" height="512" rx="100" fill="url(#bg)"/>
  <!-- Star mascot -->
  <g transform="translate(256, 256) scale(2)">
    <path d="M0 -60 L14 -20 L58 -20 L22 5 L35 50 L0 25 L-35 50 L-22 5 L-58 -20 L-14 -20 Z"
          fill="url(#starBody)" stroke="#FF9F1C" stroke-width="2"/>
    <circle cx="0" cy="-5" r="25" fill="#FFF5D6"/>
    <ellipse cx="-10" cy="-10" rx="6" ry="7" fill="#2D3436"/>
    <ellipse cx="-8" cy="-12" rx="2" ry="3" fill="#FFFFFF"/>
    <ellipse cx="10" cy="-10" rx="6" ry="7" fill="#2D3436"/>
    <ellipse cx="12" cy="-12" rx="2" ry="3" fill="#FFFFFF"/>
    <path d="M-10 5 Q0 15 10 5" fill="none" stroke="#2D3436" stroke-width="3" stroke-linecap="round"/>
    <ellipse cx="-20" cy="0" rx="6" ry="4" fill="rgba(45,212,191,0.4)"/>
    <ellipse cx="20" cy="0" rx="6" ry="4" fill="rgba(45,212,191,0.4)"/>
  </g>
</svg>
