<svg xmlns="http://www.w3.org/2000/svg" viewBox="0 0 100 100">
  <!-- Memory Match - Cards -->
  <defs>
    <linearGradient id="card1" x1="0%" y1="0%" x2="100%" y2="100%">
      <stop offset="0%" style="stop-color:#A78BFA"/>
      <stop offset="100%" style="stop-color:#8B5CF6"/>
    </linearGradient>
    <linearGradient id="card2" x1="0%" y1="0%" x2="100%" y2="100%">
      <stop offset="0%" style="stop-color:#2DD4BF"/>
      <stop offset="100%" style="stop-color:#14B8A6"/>
    </linearGradient>
    <filter id="cardShadow" x="-20%" y="-20%" width="140%" height="140%">
      <feDropShadow dx="2" dy="2" stdDeviation="2" flood-opacity="0.2"/>
    </filter>
  </defs>

  <!-- Card 1 - Face down (purple) -->
  <rect x="8" y="15" width="35" height="45" rx="6" fill="url(#card1)" filter="url(#cardShadow)"/>
  <text x="25" y="45" text-anchor="middle" fill="white" font-size="24">?</text>
  <circle cx="15" cy="22" r="3" fill="rgba(255,255,255,0.3)"/>
  <circle cx="38" cy="53" r="3" fill="rgba(255,255,255,0.3)"/>

  <!-- Card 2 - Face up (showing star) -->
  <rect x="57" y="15" width="35" height="45" rx="6" fill="white" stroke="#14B8A6" stroke-width="2" filter="url(#cardShadow)"/>
  <polygon points="74,25 77,34 87,34 79,40 82,50 74,44 66,50 69,40 61,34 71,34" fill="#FBBF24"/>

  <!-- Card 3 - Face up (showing heart) -->
  <rect x="8" y="65" width="35" height="30" rx="5" fill="white" stroke="#06B6D4" stroke-width="2" filter="url(#cardShadow)"/>
  <path d="M25 73 C20 68, 12 72, 17 80 L25 88 L33 80 C38 72, 30 68, 25 73" fill="#2DD4BF"/>

  <!-- Card 4 - Face down -->
  <rect x="57" y="65" width="35" height="30" rx="5" fill="url(#card2)" filter="url(#cardShadow)"/>
  <text x="74" y="84" text-anchor="middle" fill="white" font-size="18">?</text>

  <!-- Sparkle -->
  <polygon points="50,5 52,10 57,10 53,13 55,18 50,15 45,18 47,13 43,10 48,10" fill="#FBBF24"/>
</svg>
