<svg xmlns="http://www.w3.org/2000/svg" viewBox="0 0 100 100">
  <!-- Mole Math - Cute mole with numbers -->
  <defs>
    <linearGradient id="moleBody" x1="0%" y1="0%" x2="100%" y2="100%">
      <stop offset="0%" style="stop-color:#8B7355"/>
      <stop offset="100%" style="stop-color:#6B5344"/>
    </linearGradient>
    <linearGradient id="hole" x1="0%" y1="0%" x2="0%" y2="100%">
      <stop offset="0%" style="stop-color:#4A3728"/>
      <stop offset="100%" style="stop-color:#2D1F14"/>
    </linearGradient>
    <linearGradient id="dirt" x1="0%" y1="0%" x2="0%" y2="100%">
      <stop offset="0%" style="stop-color:#8B6914"/>
      <stop offset="100%" style="stop-color:#6B4914"/>
    </linearGradient>
  </defs>

  <!-- Dirt mound -->
  <ellipse cx="50" cy="85" rx="45" ry="12" fill="url(#dirt)"/>

  <!-- Hole -->
  <ellipse cx="50" cy="70" rx="30" ry="15" fill="url(#hole)"/>

  <!-- Mole body -->
  <ellipse cx="50" cy="50" rx="25" ry="28" fill="url(#moleBody)"/>

  <!-- Mole face -->
  <ellipse cx="50" cy="45" rx="18" ry="15" fill="#A08060"/>

  <!-- Eyes -->
  <ellipse cx="42" cy="40" rx="5" ry="6" fill="#2D1F14"/>
  <ellipse cx="43" cy="38" rx="2" ry="2.5" fill="white"/>
  <ellipse cx="58" cy="40" rx="5" ry="6" fill="#2D1F14"/>
  <ellipse cx="59" cy="38" rx="2" ry="2.5" fill="white"/>

  <!-- Nose -->
  <ellipse cx="50" cy="50" rx="6" ry="5" fill="#2DD4BF"/>
  <ellipse cx="48" cy="48" rx="2" ry="1.5" fill="rgba(255,255,255,0.4)"/>

  <!-- Mouth -->
  <path d="M44 56 Q50 62 56 56" fill="none" stroke="#2D1F14" stroke-width="2" stroke-linecap="round"/>

  <!-- Cheeks -->
  <ellipse cx="35" cy="50" rx="5" ry="4" fill="rgba(45,212,191,0.4)"/>
  <ellipse cx="65" cy="50" rx="5" ry="4" fill="rgba(45,212,191,0.4)"/>

  <!-- Number bubble -->
  <circle cx="78" cy="20" r="15" fill="white" stroke="#06B6D4" stroke-width="2"/>
  <text x="78" y="26" text-anchor="middle" fill="#06B6D4" font-size="16" font-weight="bold" font-family="Arial">5</text>

  <!-- Hammer hint -->
  <rect x="5" y="10" width="8" height="25" rx="2" fill="#8B6914"/>
  <rect x="0" y="5" width="18" height="10" rx="2" fill="#6B5344"/>
</svg>
