<svg xmlns="http://www.w3.org/2000/svg" viewBox="0 0 100 100">
  <!-- Sequence - Pattern blocks -->
  <defs>
    <linearGradient id="seq1" x1="0%" y1="0%" x2="100%" y2="100%">
      <stop offset="0%" style="stop-color:#FF6B9D"/>
      <stop offset="100%" style="stop-color:#E84A7F"/>
    </linearGradient>
    <linearGradient id="seq2" x1="0%" y1="0%" x2="100%" y2="100%">
      <stop offset="0%" style="stop-color:#00D4FF"/>
      <stop offset="100%" style="stop-color:#00A8CC"/>
    </linearGradient>
    <linearGradient id="seq3" x1="0%" y1="0%" x2="100%" y2="100%">
      <stop offset="0%" style="stop-color:#6BCB77"/>
      <stop offset="100%" style="stop-color:#4CAF50"/>
    </linearGradient>
    <linearGradient id="seq4" x1="0%" y1="0%" x2="100%" y2="100%">
      <stop offset="0%" style="stop-color:#FFD93D"/>
      <stop offset="100%" style="stop-color:#F4C430"/>
    </linearGradient>
    <filter id="seqShadow" x="-20%" y="-20%" width="140%" height="140%">
      <feDropShadow dx="1" dy="2" stdDeviation="2" flood-opacity="0.15"/>
    </filter>
  </defs>

  <!-- Sequence blocks in a pattern -->
  <rect x="8" y="15" width="22" height="22" rx="5" fill="url(#seq1)" filter="url(#seqShadow)"/>
  <text x="19" y="31" text-anchor="middle" fill="white" font-size="14" font-weight="bold">1</text>

  <rect x="35" y="15" width="22" height="22" rx="5" fill="url(#seq2)" filter="url(#seqShadow)"/>
  <text x="46" y="31" text-anchor="middle" fill="white" font-size="14" font-weight="bold">2</text>

  <rect x="62" y="15" width="22" height="22" rx="5" fill="url(#seq3)" filter="url(#seqShadow)"/>
  <text x="73" y="31" text-anchor="middle" fill="white" font-size="14" font-weight="bold">3</text>

  <!-- Arrow -->
  <path d="M50 42 L50 52 M45 47 L50 52 L55 47" stroke="#B088F9" stroke-width="3" fill="none" stroke-linecap="round" stroke-linejoin="round"/>

  <!-- Second row - pattern repeat -->
  <rect x="8" y="58" width="22" height="22" rx="5" fill="url(#seq2)" filter="url(#seqShadow)"/>
  <text x="19" y="74" text-anchor="middle" fill="white" font-size="14" font-weight="bold">2</text>

  <rect x="35" y="58" width="22" height="22" rx="5" fill="url(#seq3)" filter="url(#seqShadow)"/>
  <text x="46" y="74" text-anchor="middle" fill="white" font-size="14" font-weight="bold">3</text>

  <!-- Question mark block -->
  <rect x="62" y="58" width="22" height="22" rx="5" fill="url(#seq4)" filter="url(#seqShadow)"/>
  <text x="73" y="74" text-anchor="middle" fill="white" font-size="16" font-weight="bold">?</text>

  <!-- Sparkle -->
  <polygon points="90,10 92,16 98,16 93,20 95,26 90,22 85,26 87,20 82,16 88,16" fill="#FFD93D"/>
</svg>