<svg xmlns="http://www.w3.org/2000/svg" viewBox="0 0 100 100">
  <!-- Shape Match - Various shapes -->
  <defs>
    <linearGradient id="shape1" x1="0%" y1="0%" x2="100%" y2="100%">
      <stop offset="0%" style="stop-color:#00D4FF"/>
      <stop offset="100%" style="stop-color:#00A8CC"/>
    </linearGradient>
    <linearGradient id="shape2" x1="0%" y1="0%" x2="100%" y2="100%">
      <stop offset="0%" style="stop-color:#FF6B9D"/>
      <stop offset="100%" style="stop-color:#E84A7F"/>
    </linearGradient>
    <linearGradient id="shape3" x1="0%" y1="0%" x2="100%" y2="100%">
      <stop offset="0%" style="stop-color:#6BCB77"/>
      <stop offset="100%" style="stop-color:#4CAF50"/>
    </linearGradient>
    <linearGradient id="shape4" x1="0%" y1="0%" x2="100%" y2="100%">
      <stop offset="0%" style="stop-color:#FFD93D"/>
      <stop offset="100%" style="stop-color:#F4C430"/>
    </linearGradient>
    <linearGradient id="shape5" x1="0%" y1="0%" x2="100%" y2="100%">
      <stop offset="0%" style="stop-color:#B088F9"/>
      <stop offset="100%" style="stop-color:#8B5CF6"/>
    </linearGradient>
    <filter id="shapeShadow" x="-20%" y="-20%" width="140%" height="140%">
      <feDropShadow dx="1" dy="2" stdDeviation="2" flood-opacity="0.2"/>
    </filter>
  </defs>

  <!-- Circle -->
  <circle cx="25" cy="25" r="18" fill="url(#shape1)" filter="url(#shapeShadow)"/>
  <ellipse cx="20" cy="20" rx="5" ry="4" fill="rgba(255,255,255,0.3)"/>

  <!-- Square -->
  <rect x="55" y="8" width="35" height="35" rx="4" fill="url(#shape2)" filter="url(#shapeShadow)"/>
  <rect x="60" y="13" width="8" height="6" rx="2" fill="rgba(255,255,255,0.3)"/>

  <!-- Triangle -->
  <polygon points="25,55 45,90 5,90" fill="url(#shape3)" filter="url(#shapeShadow)"/>
  <polygon points="25,62 32,78 18,78" fill="rgba(255,255,255,0.15)"/>

  <!-- Star -->
  <polygon points="72,50 76,62 89,62 79,70 83,83 72,75 61,83 65,70 55,62 68,62" fill="url(#shape4)" filter="url(#shapeShadow)"/>
  <polygon points="72,55 74,61 80,61 75,65 77,71 72,68 67,71 69,65 64,61 70,61" fill="rgba(255,255,255,0.3)"/>

  <!-- Hexagon (small, decorative) -->
  <polygon points="50,45 58,49 58,57 50,61 42,57 42,49" fill="url(#shape5)" filter="url(#shapeShadow)"/>

  <!-- Match indicator -->
  <path d="M85 85 L90 92 L98 78" stroke="#6BCB77" stroke-width="4" fill="none" stroke-linecap="round" stroke-linejoin="round"/>
</svg>